<?xml version="1.0" encoding="iso-8859-1"?>
<!-- Generator: Adobe Illustrator 19.0.0, SVG Export Plug-In . SVG Version: 6.00 Build 0)  -->
<svg version="1.1" id="Capa_1" xmlns="http://www.w3.org/2000/svg" xmlns:xlink="http://www.w3.org/1999/xlink" x="0px" y="0px"
	 viewBox="0 0 459.52 459.52" style="enable-background:new 0 0 459.52 459.52;" xml:space="preserve">
<g>
	<g>
		<path d="M451.52,221.76h-35.2c-4.21-44.47-43.673-77.107-88.143-72.897c-38.644,3.658-69.239,34.254-72.897,72.897h-51.04
			c-4.21-44.47-43.673-77.107-88.143-72.897c-38.644,3.658-69.239,34.254-72.897,72.897H8c-4.418,0-8,3.582-8,8s3.582,8,8,8h35.2
			c4.21,44.47,43.673,77.107,88.143,72.897c38.644-3.658,69.239-34.254,72.897-72.897h51.12c4.21,44.47,43.673,77.107,88.143,72.897
			c38.644-3.658,69.239-34.254,72.897-72.897h35.12c4.418,0,8-3.582,8-8S455.938,221.76,451.52,221.76z M123.68,294.72h-0.16
			c-35.876-0.088-64.888-29.243-64.8-65.12c0.088-35.876,29.243-64.888,65.12-64.8c35.814,0.088,64.8,29.146,64.8,64.96
			C188.64,265.636,159.556,294.72,123.68,294.72z M335.84,294.72h-0.16c-35.876-0.088-64.888-29.243-64.8-65.12
			c0.088-35.876,29.243-64.888,65.12-64.8c35.814,0.088,64.8,29.146,64.8,64.96C400.8,265.636,371.716,294.72,335.84,294.72z"/>
	</g>
</g>
<g>
	<g>
		<path d="M132.56,178.96L132.56,178.96c-4.418,0-8,3.582-8,8s3.582,8,8,8c14.536,0,26.32,11.784,26.32,26.32c0,4.418,3.582,8,8,8
			s8-3.582,8-8C174.88,197.907,155.933,178.96,132.56,178.96z"/>
	</g>
</g>
<g>
	<g>
		<path d="M344.24,178.96L344.24,178.96c-4.418,0-8,3.582-8,8s3.582,8,8,8c14.536,0,26.32,11.784,26.32,26.32c0,4.418,3.582,8,8,8
			s8-3.582,8-8C386.56,197.907,367.613,178.96,344.24,178.96z"/>
	</g>
</g>
<g>
</g>
<g>
</g>
<g>
</g>
<g>
</g>
<g>
</g>
<g>
</g>
<g>
</g>
<g>
</g>
<g>
</g>
<g>
</g>
<g>
</g>
<g>
</g>
<g>
</g>
<g>
</g>
<g>
</g>
</svg>
